<svg width="476" height="719" viewBox="0 0 476 719" fill="none" xmlns="http://www.w3.org/2000/svg">
<rect width="476" height="719" fill="#F2994A"/>
<rect x="13" y="87" width="450" height="600" rx="25" fill="white"/>
<rect x="131" y="235" width="289" height="40" fill="#F2994A"/>
<rect x="131" y="295" width="208" height="40" fill="#F2994A"/>
<rect x="131" y="355" width="246" height="40" fill="#F2994A"/>
<rect x="131" y="415" width="118" height="40" fill="#F2994A"/>
<path d="M78.5858 334.214L65.5857 316.781C64.8047 315.734 64.8047 314.036 65.5857 312.988L68.4141 309.196C69.1951 308.148 70.4615 308.148 71.2426 309.196L80 320.939L98.7574 295.786C99.5384 294.738 100.805 294.738 101.586 295.786L104.414 299.578C105.195 300.626 105.195 302.324 104.414 303.371L81.4142 334.215C80.6331 335.262 79.3668 335.262 78.5858 334.214Z" fill="#F2994A"/>
<path d="M78.5858 394.214L65.5857 376.781C64.8047 375.734 64.8047 374.036 65.5857 372.988L68.4141 369.196C69.1951 368.148 70.4615 368.148 71.2426 369.196L80 380.939L98.7574 355.786C99.5384 354.738 100.805 354.738 101.586 355.786L104.414 359.578C105.195 360.626 105.195 362.324 104.414 363.371L81.4142 394.215C80.6331 395.262 79.3668 395.262 78.5858 394.214Z" fill="#F2994A"/>
<path d="M78.5858 454.214L65.5857 436.781C64.8047 435.734 64.8047 434.036 65.5857 432.988L68.4141 429.196C69.1951 428.148 70.4615 428.148 71.2426 429.196L80 440.939L98.7574 415.786C99.5384 414.738 100.805 414.738 101.586 415.786L104.414 419.578C105.195 420.626 105.195 422.324 104.414 423.371L81.4142 454.215C80.6331 455.262 79.3668 455.262 78.5858 454.214Z" fill="#F2994A"/>
<path d="M78.5858 274.214L65.5857 256.781C64.8047 255.734 64.8047 254.036 65.5857 252.988L68.4141 249.196C69.1951 248.148 70.4615 248.148 71.2426 249.196L80 260.939L98.7574 235.786C99.5384 234.738 100.805 234.738 101.586 235.786L104.414 239.578C105.195 240.626 105.195 242.324 104.414 243.371L81.4142 274.215C80.6331 275.262 79.3668 275.262 78.5858 274.214Z" fill="#F2994A"/>
<rect x="138" y="67" width="202" height="40" rx="15" fill="white"/>
<path d="M226.374 30.2788C233.727 24.2926 244.273 24.2926 251.626 30.2787L281.981 54.9896C296.577 66.8713 288.175 90.5 269.355 90.5H208.645C189.825 90.5 181.423 66.8713 196.019 54.9896L226.374 30.2788Z" fill="white"/>
<path d="M425.714 553.571H361.429V489.286C361.429 481.397 355.031 475 347.143 475H332.857C324.969 475 318.571 481.397 318.571 489.286V553.571H254.286C246.397 553.571 240 559.969 240 567.857V582.143C240 590.031 246.397 596.429 254.286 596.429H318.571V660.714C318.571 668.603 324.969 675 332.857 675H347.143C355.031 675 361.429 668.603 361.429 660.714V596.429H425.714C433.603 596.429 440 590.031 440 582.143V567.857C440 559.969 433.603 553.571 425.714 553.571Z" fill="#F2994A"/>
<circle cx="238" cy="55" r="15" fill="#F2994A"/>
</svg>
